# xmcd CD database file
#
# Track frame offsets:
#	150
#	26707
#	43602
#	64753
#	85964
#	107614
#	128647
#	152923
#	172403
#	197441
#
# Disc length: 2947 seconds
#
# Revision: 0
# Processed by: cddbd v1.5.1PL0 Copyright (c) Steve Scherf et al.
# Submitted via: CDex 1.51
#
DISCID=840b810a
DTITLE=Popa Chubby Virgin Mega - CD1 Virgin Mega
DYEAR=2005
DGENRE=Blues
TTITLE0=Sweat
TTITLE1=Palace of the King
TTITLE2=Sweet goddess of love and beer
TTITLE3=Low down and dirty
TTITLE4=Angel on my shoulder
TTITLE5=I've been loving you too long
TTITLE6=Rats get whacked
TTITLE7=Arlita
TTITLE8=White devil
TTITLE9=The wind cries Mary
EXTD=YEAR: 2005
EXTT0=
EXTT1=
EXTT2=
EXTT3=
EXTT4=
EXTT5=
EXTT6=
EXTT7=
EXTT8=
EXTT9=
PLAYORDER=
